<svg xmlns="http://www.w3.org/2000/svg" width="360" height="640" viewBox="0 0 360 640" fill="none">
  <rect width="360" height="640" fill="#f4f4f5"/>
  <text x="28" y="48" font-family="system-ui,sans-serif" font-size="18" fill="#a31f34">É</text>
  <text x="180" y="72" text-anchor="middle" font-family="system-ui,sans-serif" font-size="11" font-weight="800" fill="#a31f34">Hunt Library</text>
  <text x="180" y="96" text-anchor="middle" font-family="system-ui,sans-serif" font-size="16" font-weight="800" fill="#a31f34">Floor 4</text>
  <rect x="16" y="108" width="200" height="220" rx="8" fill="#dfe2e6" stroke="#9ca3af"/>
  <rect x="28" y="124" width="24" height="16" rx="3" fill="#22c55e" stroke="#15803d"/>
  <rect x="60" y="124" width="24" height="16" rx="3" fill="#22c55e" stroke="#15803d"/>
  <rect x="92" y="124" width="24" height="16" rx="3" fill="#ef4444" stroke="#b91c1c"/>
  <rect x="100" y="160" width="36" height="120" rx="2" fill="#e4e4e7" stroke="#a1a1aa"/>
  <text x="118" y="225" text-anchor="middle" font-family="system-ui,sans-serif" font-size="6" fill="#71717a" transform="rotate(-90 118 218)">corridor</text>
  <rect x="132" y="130" width="72" height="40" rx="4" fill="#22c55e" stroke="#15803d"/>
  <text x="168" y="154" text-anchor="middle" font-family="system-ui,sans-serif" font-size="8" font-weight="700" fill="#fff">Rm 1</text>
  <rect x="132" y="182" width="72" height="40" rx="4" fill="#22c55e" stroke="#f59e0b" stroke-width="2"/>
  <text x="168" y="206" text-anchor="middle" font-family="system-ui,sans-serif" font-size="8" font-weight="700" fill="#fff">Rm 2</text>
  <rect x="224" y="108" width="120" height="220" rx="8" fill="#fff1f2" stroke="#fda4af"/>
  <text x="284" y="132" text-anchor="middle" font-family="system-ui,sans-serif" font-size="11" font-weight="800" fill="#9f1239">Check In</text>
  <rect x="232" y="148" width="104" height="22" rx="6" fill="#6b2d2d"/>
  <text x="284" y="163" text-anchor="middle" font-family="system-ui,sans-serif" font-size="8" font-weight="700" fill="#fff">Room 2</text>
  <text x="240" y="200" font-family="system-ui,sans-serif" font-size="8" font-weight="600" fill="#52525b">Start</text>
  <text x="300" y="200" text-anchor="end" font-family="monospace" font-size="9" font-weight="700" fill="#6b2d2d">14:00</text>
  <text x="240" y="224" font-family="system-ui,sans-serif" font-size="8" font-weight="600" fill="#52525b">End</text>
  <text x="300" y="224" text-anchor="end" font-family="monospace" font-size="9" font-weight="700" fill="#6b2d2d">17:00</text>
  <rect x="232" y="248" width="104" height="32" rx="10" fill="#4a2c2c"/>
  <text x="284" y="268" text-anchor="middle" font-family="system-ui,sans-serif" font-size="10" font-weight="700" fill="#fff">Submit</text>
  <text x="180" y="360" text-anchor="middle" font-family="system-ui,sans-serif" font-size="8" fill="#71717a">Green = available Ę Red = occupied (wireframe)</text>
</svg>
